<svg width="15" height="11" viewBox="0 0 15 11" fill="none" xmlns="http://www.w3.org/2000/svg">
<path d="M11.1124 3.33746L9.8437 7.33621C9.8437 7.02996 8.9687 0.397461 8.9687 0.397461C6.9562 0.397461 5.8887 1.82371 5.3287 3.33746L3.77995 7.34496C3.77995 7.05621 3.5612 3.37246 3.5612 3.37246C3.4865 2.575 3.12193 1.83264 2.53656 1.28596C1.95118 0.73929 1.18564 0.426275 0.384949 0.406209L2.02995 10.4512C4.12995 10.4512 5.26745 9.02496 5.8537 7.51121L7.1662 4.09871C7.1662 4.23871 8.0412 10.4512 8.0412 10.4512C8.89992 10.4501 9.73597 10.1756 10.4282 9.66743C11.1204 9.15927 11.6328 8.44389 11.8912 7.62496L14.8662 0.397461C12.7662 0.397461 11.6637 1.82371 11.1037 3.33746H11.1124Z" fill="white"/>
</svg>
